<svg xmlns="http://www.w3.org/2000/svg" width="607.692" height="267.611" viewBox="0 0 607.692 267.611">
  <g id="Component_6_1" data-name="Component 6 – 1" transform="translate(5.384)">
    <g id="Component_1_1" data-name="Component 1 – 1" transform="translate(0 88.171)">
      <path id="Path_2" data-name="Path 2" d="M412.308,555.385s154.615-79.231,298.462,0,298.462,0,298.462,0" transform="translate(-412.308 -520.171)" fill="none" stroke="#d26864" stroke-linecap="round" stroke-width="8"/>
      <path id="Path_3" data-name="Path 3" d="M412.308,555.385s154.615-79.231,298.462,0,298.462,0,298.462,0" transform="translate(-412.308 -485.171)" fill="none" stroke="#d97e62" stroke-linecap="round" stroke-width="8"/>
      <path id="Path_4" data-name="Path 4" d="M412.308,555.385s154.615-79.231,298.462,0,298.462,0,298.462,0" transform="translate(-412.308 -450.171)" fill="none" stroke="#e29b5e" stroke-linecap="round" stroke-width="8"/>
      <path id="Path_5" data-name="Path 5" d="M412.308,555.385s154.615-79.231,298.462,0,298.462,0,298.462,0" transform="translate(-412.308 -415.171)" fill="none" stroke="#eec75e" stroke-linecap="round" stroke-width="8"/>
    </g>
    <g id="Component_2_1" data-name="Component 2 – 1" transform="translate(70.692)">
      <text id="F" transform="translate(0 46)" fill="#fff" font-size="50" font-family="Roboto-Thin, Roboto" font-weight="200"><tspan x="0" y="0">F</tspan></text>
      <text id="L" transform="translate(106 46)" fill="#fff" font-size="50" font-family="Roboto-Thin, Roboto" font-weight="200"><tspan x="0" y="0">L</tspan></text>
      <text id="E" transform="translate(213 46)" fill="#fff" font-size="50" font-family="Roboto-Thin, Roboto" font-weight="200"><tspan x="0" y="0">E</tspan></text>
      <text id="E-2" data-name="E" transform="translate(319 46)" fill="#fff" font-size="50" font-family="Roboto-Thin, Roboto" font-weight="200"><tspan x="0" y="0">E</tspan></text>
      <text id="T" transform="translate(425 46)" fill="#fff" font-size="50" font-family="Roboto-Thin, Roboto" font-weight="200"><tspan x="0" y="0">T</tspan></text>
    </g>
  </g>
</svg>
